<svg width="348" height="348" viewBox="0 0 348 348" fill="none" xmlns="http://www.w3.org/2000/svg">
<g clip-path="url(#clip0_729_15)">
<path d="M191.4 156.6V87H156.6V156.6H87V191.4H156.6V261H191.4V191.4H261V156.6H191.4ZM174 348C127.852 348 83.5947 329.668 50.9634 297.037C18.3321 264.405 0 220.148 0 174C0 127.852 18.3321 83.5947 50.9634 50.9634C83.5947 18.3321 127.852 0 174 0C220.148 0 264.405 18.3321 297.037 50.9634C329.668 83.5947 348 127.852 348 174C348 220.148 329.668 264.405 297.037 297.037C264.405 329.668 220.148 348 174 348Z" fill="#004E08"/>
</g>
<defs>
<clipPath id="clip0_729_15">
<rect width="348" height="348" fill="white"/>
</clipPath>
</defs>
</svg>
