<svg width="348" height="348" viewBox="0 0 348 348" fill="none" xmlns="http://www.w3.org/2000/svg">
<g clip-path="url(#clip0_719_8)">
<path d="M311.75 58.0001H273.083V87.0001C273.083 89.7929 272.533 92.5583 271.465 95.1385C270.396 97.7187 268.829 100.063 266.854 102.038C264.88 104.013 262.535 105.579 259.955 106.648C257.375 107.717 254.609 108.267 251.817 108.267C249.024 108.267 246.258 107.717 243.678 106.648C241.098 105.579 238.754 104.013 236.779 102.038C234.804 100.063 233.238 97.7187 232.169 95.1385C231.1 92.5583 230.55 89.7929 230.55 87.0001V58.0001H117.933V87.0001C117.933 92.6404 115.693 98.0497 111.704 102.038C107.716 106.026 102.307 108.267 96.6667 108.267C91.0264 108.267 85.6171 106.026 81.6289 102.038C77.6406 98.0497 75.4 92.6404 75.4 87.0001V58.0001H36.7333C34.4329 57.974 32.1506 58.4094 30.0213 59.2806C27.8921 60.1518 25.9592 61.4412 24.3369 63.0725C22.7147 64.7038 21.436 66.6438 20.5766 68.7778C19.7172 70.9118 19.2944 73.1965 19.3333 75.4968V291.837C19.2949 294.097 19.7021 296.342 20.5315 298.444C21.3609 300.546 22.5963 302.465 24.1673 304.089C25.7382 305.714 27.6138 307.014 29.687 307.913C31.7602 308.813 33.9903 309.296 36.25 309.333H311.75C314.01 309.296 316.24 308.813 318.313 307.913C320.386 307.014 322.262 305.714 323.833 304.089C325.404 302.465 326.639 300.546 327.469 298.444C328.298 296.342 328.705 294.097 328.667 291.837V75.4968C328.705 73.2371 328.298 70.992 327.469 68.8897C326.639 66.7873 325.404 64.869 323.833 63.2442C322.262 61.6194 320.386 60.32 318.313 59.4202C316.24 58.5205 314.01 58.0379 311.75 58.0001ZM96.6667 251.333H77.3333V232H96.6667V251.333ZM96.6667 203H77.3333V183.667H96.6667V203ZM96.6667 154.667H77.3333V135.333H96.6667V154.667ZM154.667 251.333H135.333V232H154.667V251.333ZM154.667 203H135.333V183.667H154.667V203ZM154.667 154.667H135.333V135.333H154.667V154.667ZM212.667 251.333H193.333V232H212.667V251.333ZM212.667 203H193.333V183.667H212.667V203ZM212.667 154.667H193.333V135.333H212.667V154.667ZM270.667 251.333H251.333V232H270.667V251.333ZM270.667 203H251.333V183.667H270.667V203ZM270.667 154.667H251.333V135.333H270.667V154.667Z" fill="#FCF8F8"/>
<path d="M96.6667 96.6668C99.2304 96.6668 101.689 95.6484 103.502 93.8355C105.315 92.0227 106.333 89.5639 106.333 87.0002V29.0002C106.333 26.4364 105.315 23.9776 103.502 22.1648C101.689 20.3519 99.2304 19.3335 96.6667 19.3335C94.1029 19.3335 91.6442 20.3519 89.8313 22.1648C88.0185 23.9776 87 26.4364 87 29.0002V87.0002C87 89.5639 88.0185 92.0227 89.8313 93.8355C91.6442 95.6484 94.1029 96.6668 96.6667 96.6668Z" fill="#FCF8F8"/>
<path d="M251.333 96.6668C253.897 96.6668 256.356 95.6484 258.169 93.8355C259.982 92.0227 261 89.5639 261 87.0002V29.0002C261 26.4364 259.982 23.9776 258.169 22.1648C256.356 20.3519 253.897 19.3335 251.333 19.3335C248.77 19.3335 246.311 20.3519 244.498 22.1648C242.685 23.9776 241.667 26.4364 241.667 29.0002V87.0002C241.667 89.5639 242.685 92.0227 244.498 93.8355C246.311 95.6484 248.77 96.6668 251.333 96.6668Z" fill="#FCF8F8"/>
</g>
<defs>
<clipPath id="clip0_719_8">
<rect width="348" height="348" fill="white"/>
</clipPath>
</defs>
</svg>
