<svg width="348" height="348" viewBox="0 0 348 348" fill="none" xmlns="http://www.w3.org/2000/svg">
<path d="M193.295 -0.000628563L87.6354 0.446552C42.9215 6.54213 4.61141 34.005 1.22774 80.857C0.158033 85.158 0.685512 89.5247 0.534152 93.5204C0.0467067 113.994 0.163651 136.021 0.479367 157.101C0.563651 190.364 -0.427744 217.166 0.204389 241.896C0.609305 314.564 43.902 348.524 122.518 347.11C141.995 346.76 164.265 346.634 189.806 347.295C215.207 347.465 234.789 349.123 252.239 346.663C329.739 335.735 344.845 284.228 347.992 242.528V194.775C345.731 146.266 310.237 132.911 279.89 131.926C283.152 119.8 283.936 103.314 281.079 81.1076C277.401 37.959 246.497 4.22132 193.295 -0.000628563ZM104.939 65.1611H190.895C238.42 71.4335 236.182 122.21 190.895 129.494H104.939C57.4145 123.222 59.6526 72.4448 104.939 65.1611ZM85.423 205.683L243.334 206.218C291.087 212.32 291.222 269.926 244.997 276.975L87.0851 276.429C38.1145 270.463 38.8017 212.792 85.423 205.683Z" fill="black"/>
</svg>
