<svg width="348" height="348" viewBox="0 0 348 348" fill="none" xmlns="http://www.w3.org/2000/svg">
<g clip-path="url(#clip0_719_2)">
<path fill-rule="evenodd" clip-rule="evenodd" d="M290 58C297.691 58 305.068 61.0553 310.506 66.4939C315.945 71.9325 319 79.3087 319 87V261C319 268.691 315.945 276.068 310.506 281.506C305.068 286.945 297.691 290 290 290H58C50.3087 290 42.9325 286.945 37.4939 281.506C32.0553 276.068 29 268.691 29 261V87C29 79.3087 32.0553 71.9325 37.4939 66.4939C42.9325 61.0553 50.3087 58 58 58H290ZM137.75 174H108.75C99.5466 173.999 90.6872 177.498 83.9688 183.788C77.2505 190.078 73.1762 198.688 72.5725 207.872L72.5 210.25V217.5C72.5041 221.196 73.9192 224.75 76.4563 227.438C78.9934 230.125 82.4608 231.742 86.1502 231.959C89.8396 232.176 93.4725 230.975 96.3066 228.603C99.1406 226.231 100.962 222.866 101.399 219.196L101.5 217.5V210.25C101.499 208.553 102.094 206.91 103.18 205.606C104.267 204.303 105.776 203.421 107.445 203.116L108.75 203H137.75C139.447 202.999 141.09 203.594 142.394 204.68C143.697 205.767 144.579 207.276 144.884 208.945L145 210.25V217.5C145.004 221.196 146.419 224.75 148.956 227.438C151.493 230.125 154.961 231.742 158.65 231.959C162.34 232.176 165.972 230.975 168.807 228.603C171.641 226.231 173.462 222.866 173.899 219.196L174 217.5V210.25C174.001 201.047 170.502 192.187 164.212 185.469C157.922 178.75 149.312 174.676 140.128 174.073L137.75 174ZM261 188.5H203L201.304 188.601C197.779 189.021 194.531 190.718 192.174 193.371C189.818 196.025 188.516 199.451 188.516 203C188.516 206.549 189.818 209.975 192.174 212.629C194.531 215.282 197.779 216.979 201.304 217.399L203 217.5H261L262.697 217.399C266.221 216.979 269.469 215.282 271.826 212.629C274.182 209.975 275.484 206.549 275.484 203C275.484 199.451 274.182 196.025 271.826 193.371C269.469 190.718 266.221 189.021 262.697 188.601L261 188.5ZM232 145H203C199.304 145.004 195.75 146.419 193.062 148.956C190.375 151.493 188.758 154.961 188.541 158.65C188.324 162.34 189.525 165.972 191.897 168.807C194.269 171.641 197.634 173.462 201.304 173.899L203 174H232C235.696 173.996 239.25 172.581 241.938 170.044C244.625 167.507 246.242 164.039 246.459 160.35C246.676 156.66 245.475 153.028 243.103 150.193C240.731 147.359 237.366 145.538 233.697 145.101L232 145ZM123.25 116C116.52 116 110.066 118.673 105.307 123.432C100.548 128.191 97.875 134.645 97.875 141.375C97.875 148.105 100.548 154.559 105.307 159.318C110.066 164.077 116.52 166.75 123.25 166.75C129.98 166.75 136.434 164.077 141.193 159.318C145.952 154.559 148.625 148.105 148.625 141.375C148.625 134.645 145.952 128.191 141.193 123.432C136.434 118.673 129.98 116 123.25 116Z" fill="white"/>
</g>
<defs>
<clipPath id="clip0_719_2">
<rect width="348" height="348" fill="white"/>
</clipPath>
</defs>
</svg>
