<svg width="262" height="262" viewBox="0 0 262 262" fill="none" xmlns="http://www.w3.org/2000/svg">
<path d="M0.5 207.125V261.5H54.875L215.245 101.13L160.87 46.7548L0.5 207.125ZM257.295 59.0798C258.639 57.7383 259.706 56.145 260.433 54.3908C261.161 52.6367 261.535 50.7563 261.535 48.8573C261.535 46.9583 261.161 45.0779 260.433 43.3237C259.706 41.5696 258.639 39.9762 257.295 38.6348L223.365 4.70479C222.024 3.36059 220.43 2.29415 218.676 1.56652C216.922 0.83889 215.042 0.464355 213.143 0.464355C211.243 0.464355 209.363 0.83889 207.609 1.56652C205.855 2.29415 204.261 3.36059 202.92 4.70479L176.385 31.2398L230.76 85.6148L257.295 59.0798Z" fill="#040EFF"/>
</svg>
